<?xml version="1.0" encoding="UTF-8" standalone="no"?>
<!-- Created with Inkscape (http://www.inkscape.org/) -->

<svg
   width="135.46666mm"
   height="135.46666mm"
   viewBox="0 0 135.46666 135.46666"
   version="1.1"
   id="svg1"
   inkscape:version="1.3 (0e150ed, 2023-07-21)"
   sodipodi:docname="DullPhoneLogo2.svg"
   xmlns:inkscape="http://www.inkscape.org/namespaces/inkscape"
   xmlns:sodipodi="http://sodipodi.sourceforge.net/DTD/sodipodi-0.dtd"
   xmlns="http://www.w3.org/2000/svg"
   xmlns:svg="http://www.w3.org/2000/svg">
  <sodipodi:namedview
     id="namedview1"
     pagecolor="#3a3a3a"
     bordercolor="#000000"
     borderopacity="0.25"
     inkscape:showpageshadow="2"
     inkscape:pageopacity="0.0"
     inkscape:pagecheckerboard="0"
     inkscape:deskcolor="#d1d1d1"
     inkscape:document-units="mm"
     inkscape:zoom="0.70710678"
     inkscape:cx="72.124891"
     inkscape:cy="469.5189"
     inkscape:window-width="1916"
     inkscape:window-height="1052"
     inkscape:window-x="0"
     inkscape:window-y="24"
     inkscape:window-maximized="1"
     inkscape:current-layer="layer1"
     showguides="false" />
  <defs
     id="defs1" />
  <g
     inkscape:label="Layer 1"
     inkscape:groupmode="layer"
     id="layer1">
    <g
       id="g26">
      <rect
         style="fill:#000000;stroke-width:3.70291e-08"
         id="rect25"
         width="135.46666"
         height="135.46666"
         x="0"
         y="0" />
      <path
         id="rect24"
         style="fill:#e3e3e3;fill-opacity:1;stroke-width:2.03686e-08"
         d="m 51.464344,43.391048 c -3.063345,0.373315 -5.229153,3.140242 -4.855835,6.2036 l 4.791793,39.320501 c 0.373317,3.063364 3.14021,5.228845 6.203556,4.855521 l 10.449571,-1.273436 9.309989,1.240038 c 3.059005,0.407417 5.84973,-1.727126 6.257155,-4.786134 l 5.229593,-39.264635 c 0.40742,-3.059006 -1.727486,-5.850029 -4.786493,-6.257444 l -6.166041,-0.821293 -1.432607,2.369187 5.868253,0.781622 c 0.696766,0.0928 1.182651,0.7286 1.089854,1.425375 -0.0928,0.696763 -0.72823,1.182929 -1.425003,1.090127 l -6.965681,-0.927608 -1.432647,2.368857 -6.13e-4,7.3e-5 -8.226022,13.60335 7.409368,7.839475 -0.0077,0.02969 -3.990957,14.392775 -0.851723,-15.005444 -6.12e-4,7.5e-5 -1.23e-4,-9.41e-4 -9.139701,-5.728943 4.548813,-15.232586 3.25e-4,-4e-5 0.792348,-2.65281 -10.657569,1.298783 c -0.697746,0.08503 -1.327862,-0.408181 -1.412895,-1.105937 -0.08504,-0.697755 0.408151,-1.328191 1.105897,-1.413221 l 11.756505,-1.432705 0.792346,-2.652772 z m -2.089971,7.923753 11.447013,-1.39499 -4.5488,15.232585 9.139688,5.72893 0.09225,12.979355 -11.985933,1.460666 z m 26.740283,-1.264245 9.950173,1.325176 -4.522832,33.958349 -9.412045,-1.253692 3.168044,-12.587009 -7.409367,-7.839475 z m -8.679667,35.661803 a 2.3685715,2.3685692 80.970991 0 1 2.637769,2.064702 2.3685715,2.3685692 80.970991 0 1 -2.064702,2.637772 2.3685715,2.3685692 80.970991 0 1 -2.637447,-2.064745 2.3685715,2.3685692 80.970991 0 1 2.06438,-2.637729 z" />
    </g>
  </g>
</svg>
