<?xml version="1.0" encoding="UTF-8" standalone="no"?>
<!-- Created with Inkscape (http://www.inkscape.org/) -->

<svg
   width="135.46666mm"
   height="135.46666mm"
   viewBox="0 0 135.46666 135.46666"
   version="1.1"
   id="svg1"
   sodipodi:docname="logo1.svg"
   xmlns:inkscape="http://www.inkscape.org/namespaces/inkscape"
   xmlns:sodipodi="http://sodipodi.sourceforge.net/DTD/sodipodi-0.dtd"
   xmlns="http://www.w3.org/2000/svg"
   xmlns:svg="http://www.w3.org/2000/svg">
  <sodipodi:namedview
     id="namedview1"
     pagecolor="#ffffff"
     bordercolor="#000000"
     borderopacity="0.25"
     inkscape:showpageshadow="2"
     inkscape:pageopacity="0.0"
     inkscape:pagecheckerboard="0"
     inkscape:deskcolor="#d1d1d1"
     inkscape:document-units="mm" />
  <defs
     id="defs1" />
  <g
     inkscape:label="Layer 1"
     inkscape:groupmode="layer"
     id="layer1">
    <g
       id="g2"
       inkscape:export-filename="logo2.svg"
       inkscape:export-xdpi="96"
       inkscape:export-ydpi="96">
      <rect
         style="fill:#000022;fill-opacity:1;stroke:none;stroke-width:5.99488e-08"
         id="rect3"
         width="135.46666"
         height="135.46666"
         x="-1.7763568e-15"
         y="0" />
      <path
         id="path1-2-7"
         style="fill:#0aabca;fill-opacity:1;stroke:none;stroke-width:4.47195e-08"
         d="m 47.293795,38.794796 a 40.889826,40.284761 0 0 0 -1.82779,8.29878 40.889826,40.284761 0 0 0 17.36844,36.86625 38.028755,45.800967 43.136144 0 1 -1.45934,0.85629 45.800928,38.028786 39.057217 0 1 -7.80366,-6.95829 45.800928,38.028786 39.057217 0 1 -12.92169,-28.24655 40.284757,40.88983 82.19019 0 0 -0.68368,8.46983 40.284757,40.88983 82.19019 0 0 15.21044,29.70488 38.028755,45.800967 43.136144 0 1 -11.58792,2.96366 40.889826,40.284761 0 0 0 9.62887,0.30282 40.889826,40.284761 0 0 0 5.33508,-0.86713 40.284757,40.88983 82.19019 0 0 2.78329,1.64487 38.028786,45.800928 50.942783 0 1 -17.74724,3.1988 40.88983,40.284757 7.8098098 0 0 9.49813,1.60767 40.88983,40.284757 7.8098098 0 0 14.70763,-2.05933 40.284757,40.88983 82.19019 0 0 14.58567,2.05933 40.284757,40.88983 82.19019 0 0 9.498128,-1.60767 45.800928,38.028786 39.057217 0 1 -17.661968,-3.19466 40.88983,40.284757 7.8098098 0 0 2.81171,-1.64952 40.889826,40.284761 0 0 0 5.22139,0.86764 40.889826,40.284761 0 0 0 9.628868,-0.30282 45.800967,38.028755 46.863856 0 1 -11.477848,-2.97968 40.88983,40.284757 7.8098098 0 0 15.100368,-29.68886 40.88983,40.284757 7.8098098 0 0 -0.68368,-8.46983 38.028786,45.800928 50.942783 0 1 -12.921688,28.24655 38.028786,45.800928 50.942783 0 1 -7.77731,6.96759 45.800967,38.028755 46.863856 0 1 -1.38803,-0.8661 40.889826,40.284761 0 0 0 17.27078,-36.86574 40.889826,40.284761 0 0 0 -1.82779,-8.29878 38.028755,45.800967 43.136144 0 1 -8.96534,29.74001 38.028755,45.800967 43.136144 0 1 -11.43187,12.02158 45.800967,38.028755 46.863856 0 1 -11.5166,-12.02158 45.800967,38.028755 46.863856 0 1 -8.96535,-29.74001 z" />
    </g>
  </g>
</svg>
